<?xml version="1.0" standalone="no"?>
<!DOCTYPE svg PUBLIC "-//W3C//DTD SVG 20010904//EN"
 "http://www.w3.org/TR/2001/REC-SVG-20010904/DTD/svg10.dtd">
<svg version="1.0" xmlns="http://www.w3.org/2000/svg"
 width="806.000000pt" height="889.000000pt" viewBox="0 0 806.000000 889.000000"
 preserveAspectRatio="xMidYMid meet">

<g transform="translate(0.000000,889.000000) scale(0.100000,-0.100000)"
fill="#000000" stroke="none">
<path d="M3755 6660 c-594 -65 -1082 -367 -1285 -795 -85 -182 -110 -299 -117
-562 l-6 -203 1648 0 1648 0 -6 198 c-6 221 -24 333 -78 474 -186 486 -688
820 -1333 888 -105 11 -368 11 -471 0z m425 -415 c457 -48 811 -259 959 -568
22 -45 44 -99 49 -119 l10 -38 -1203 0 -1204 0 16 52 c106 358 488 616 993
673 155 17 221 17 380 0z"/>
<path d="M190 4893 c0 -320 26 -539 95 -808 67 -262 187 -545 319 -750 209
-326 474 -581 806 -777 425 -250 924 -368 1433 -337 404 25 754 129 1085 321
l103 60 57 -35 c658 -405 1532 -463 2282 -152 215 89 453 239 650 410 165 143
308 311 436 510 131 204 252 489 319 750 69 269 95 488 95 808 l0 227 -880 0
-880 0 0 -212 0 -211 671 6 672 7 -7 -87 c-34 -441 -200 -885 -455 -1218 -68
-90 -225 -248 -326 -330 -597 -483 -1470 -583 -2174 -249 l-114 54 59 63 c104
109 205 240 277 359 225 373 342 776 363 1254 l7 154 -205 0 -205 0 -7 -52
c-3 -29 -6 -82 -6 -118 0 -136 -57 -441 -113 -605 -33 -97 -95 -239 -134 -308
-18 -33 -33 -60 -33 -62 0 -2 -27 -44 -60 -94 -65 -98 -228 -293 -266 -318
-22 -14 -26 -14 -48 0 -38 25 -201 220 -266 318 -33 50 -60 92 -60 94 0 2 -15
29 -33 62 -39 69 -101 211 -134 308 -56 164 -113 469 -113 605 0 36 -3 89 -6
118 l-7 52 -205 0 -205 0 7 -154 c16 -351 73 -622 198 -929 103 -253 254 -487
442 -684 l59 -63 -114 -54 c-436 -207 -948 -252 -1424 -126 -364 96 -676 278
-935 546 -236 245 -398 529 -505 886 -46 156 -95 436 -95 548 l0 30 670 -7
670 -6 0 211 0 212 -880 0 -880 0 0 -227z"/>
</g>
</svg>
